<?xml version="1.0" standalone="no"?>
<!DOCTYPE svg PUBLIC "-//W3C//DTD SVG 20010904//EN"
 "http://www.w3.org/TR/2001/REC-SVG-20010904/DTD/svg10.dtd">
<svg version="1.0" xmlns="http://www.w3.org/2000/svg"
 width="512.000000pt" height="512.000000pt" viewBox="0 0 512.000000 512.000000"
 preserveAspectRatio="xMidYMid meet">

<g transform="translate(0.000000,512.000000) scale(0.100000,-0.100000)"
fill="#ffd520" stroke="none">
<path d="M3085 4713 c-249 -33 -495 -191 -627 -403 -82 -131 -138 -311 -138
-441 0 -43 -7 -46 -50 -24 -15 8 -73 27 -127 41 -89 25 -114 27 -283 28 -169
0 -193 -2 -280 -26 -283 -77 -512 -256 -650 -511 -22 -39 -40 -85 -40 -100 0
-56 69 -94 120 -67 11 6 37 45 60 89 84 161 218 290 385 371 151 73 209 85
405 84 135 -1 179 -5 245 -22 112 -31 253 -102 346 -178 99 -80 119 -82 192
-21 261 219 591 283 921 177 458 -148 699 -651 672 -1403 l-6 -178 25 -24 c44
-45 114 -23 132 43 13 46 9 489 -5 592 -96 694 -415 1083 -955 1166 -183 28
-420 5 -560 -55 -70 -30 -71 -29 -63 37 22 188 175 331 376 351 103 10 148 30
199 87 84 95 81 217 -6 314 -64 71 -146 92 -288 73z m170 -178 c53 -52 15
-135 -63 -135 -135 0 -283 -64 -386 -166 -112 -113 -166 -250 -166 -423 0 -75
-1 -77 -34 -103 -43 -35 -49 -35 -93 -1 l-36 27 6 121 c9 208 70 350 211 491
137 137 300 209 484 213 44 1 57 -3 77 -24z"/>
<path d="M466 3029 c-62 -15 -153 -68 -197 -116 -22 -24 -55 -74 -72 -111
l-32 -67 0 -415 0 -415 32 -67 c17 -37 50 -87 74 -112 57 -63 163 -114 251
-123 62 -5 68 -4 92 20 51 51 17 137 -55 137 -123 0 -239 117 -239 240 0 92
80 202 166 228 32 9 335 12 1274 12 939 0 1242 3 1274 12 55 16 138 99 154
154 16 56 16 412 0 468 -16 55 -99 138 -154 154 -50 15 -2505 16 -2568 1z
m2549 -174 c25 -24 25 -26 25 -215 0 -189 0 -191 -25 -215 -23 -24 -29 -25
-160 -25 l-135 0 0 135 c0 131 -1 137 -25 160 -15 16 -36 25 -55 25 -19 0 -40
-9 -55 -25 -24 -23 -25 -29 -25 -160 l0 -135 -160 0 -160 0 0 95 c0 88 -2 98
-25 120 -32 33 -78 33 -110 0 -23 -22 -25 -32 -25 -120 l0 -95 -160 0 -160 0
0 135 c0 131 -1 137 -25 160 -15 16 -36 25 -55 25 -19 0 -40 -9 -55 -25 -24
-23 -25 -29 -25 -160 l0 -135 -160 0 -160 0 0 95 c0 88 -2 98 -25 120 -15 16
-36 25 -55 25 -19 0 -40 -9 -55 -25 -23 -22 -25 -32 -25 -120 l0 -95 -160 0
-160 0 0 135 c0 131 -1 137 -25 160 -15 16 -36 25 -55 25 -19 0 -40 -9 -55
-25 -24 -23 -25 -29 -25 -158 l0 -134 -91 -5 c-77 -5 -101 -11 -160 -40 l-69
-34 0 174 c0 108 5 190 12 216 15 51 99 137 148 153 25 8 401 11 1273 12
l1238 1 24 -25z"/>
<path d="M4585 2525 c-49 -48 -25 -115 48 -137 87 -26 167 -135 167 -228 0
-92 -80 -202 -166 -228 -32 -9 -335 -12 -1274 -12 -939 0 -1242 -3 -1274 -12
-55 -16 -138 -99 -154 -154 -16 -56 -16 -412 0 -468 17 -58 100 -138 158 -154
35 -10 330 -12 1306 -10 l1260 3 76 37 c91 45 147 103 191 196 l32 67 0 415 0
415 -32 67 c-42 90 -100 150 -186 193 -83 42 -119 44 -152 10z m203 -1075 c-8
-31 -27 -60 -62 -95 -57 -57 -103 -75 -190 -75 l-56 0 0 135 c0 131 -1 137
-25 160 -15 16 -36 25 -55 25 -19 0 -40 -9 -55 -25 -24 -23 -25 -29 -25 -160
l0 -135 -160 0 -160 0 0 95 c0 88 -2 98 -25 120 -32 33 -78 33 -110 0 -23 -22
-25 -32 -25 -120 l0 -95 -160 0 -160 0 0 135 c0 131 -1 137 -25 160 -32 33
-78 33 -110 0 -24 -23 -25 -29 -25 -160 l0 -135 -160 0 -160 0 0 95 c0 88 -2
98 -25 120 -32 33 -78 33 -110 0 -23 -22 -25 -32 -25 -120 l0 -95 -160 0 -160
0 0 135 c0 131 -1 137 -25 160 -32 33 -78 33 -110 0 -24 -23 -25 -29 -25 -160
l0 -135 -135 0 c-131 0 -137 1 -160 25 -25 24 -25 26 -25 213 0 172 2 192 19
213 l19 24 1269 5 1268 5 70 35 70 35 3 -170 c2 -113 -1 -185 -10 -215z"/>
<path d="M783 2060 c-33 -30 -36 -53 -18 -147 124 -670 457 -1219 860 -1420
183 -92 387 -115 582 -67 85 20 233 89 296 137 26 21 52 37 57 37 5 0 31 -16
57 -37 27 -20 89 -55 138 -79 381 -179 794 -64 1106 309 57 68 63 104 24 142
-47 48 -73 37 -187 -81 -117 -121 -194 -180 -300 -228 -212 -98 -449 -83 -648
42 -30 19 -72 49 -92 68 -90 81 -104 81 -198 -1 -37 -32 -104 -76 -155 -100
-270 -132 -541 -88 -796 130 -267 228 -507 712 -590 1195 -15 85 -40 120 -87
120 -15 0 -38 -9 -49 -20z"/>
</g>
</svg>
