<?xml version="1.0" standalone="no"?>
<!DOCTYPE svg PUBLIC "-//W3C//DTD SVG 20010904//EN"
 "http://www.w3.org/TR/2001/REC-SVG-20010904/DTD/svg10.dtd">
<svg version="1.0" xmlns="http://www.w3.org/2000/svg"
 width="512.000000pt" height="512.000000pt" viewBox="0 0 512.000000 512.000000"
 preserveAspectRatio="xMidYMid meet">

<g transform="translate(0.000000,512.000000) scale(0.100000,-0.100000)"
fill="#8E8D8D" stroke="none">
<path d="M542 4751 c-63 -22 -123 -77 -154 -141 -19 -38 -23 -66 -26 -181 l-4
-137 -87 -4 c-100 -5 -156 -30 -211 -95 -61 -74 -61 -74 -58 -784 3 -643 3
-644 25 -685 53 -99 129 -145 249 -152 l82 -4 4 -137 c3 -115 7 -142 26 -177
34 -66 69 -101 130 -131 57 -28 58 -28 257 -28 145 0 211 4 239 14 54 19 124
86 152 146 24 50 24 53 24 428 l0 377 189 0 189 0 5 -212 c6 -301 1 -285 233
-705 l134 -242 0 -755 0 -755 26 -20 c26 -21 35 -21 594 -21 559 0 568 0 594
21 l26 20 0 753 0 752 149 215 c81 118 158 233 170 256 45 89 51 141 51 425
l0 268 190 0 190 0 0 -377 c0 -375 0 -378 24 -428 12 -27 42 -67 66 -88 75
-68 90 -72 320 -72 204 0 205 0 262 28 61 30 96 65 130 131 19 35 23 62 26
177 l4 137 82 4 c120 7 196 53 249 152 22 41 22 42 25 685 3 710 3 710 -58
784 -55 65 -111 90 -211 95 l-87 4 -4 137 c-4 158 -19 202 -93 270 -69 63
-118 73 -348 69 -191 -3 -192 -3 -246 -33 -29 -16 -66 -45 -82 -64 -57 -69
-59 -89 -59 -498 l0 -373 -375 0 -375 0 0 33 c0 132 -117 247 -251 247 -65 0
-98 -10 -151 -47 l-37 -25 -33 25 c-91 67 -215 61 -320 -15 -14 -10 -21 -9
-40 9 -75 71 -240 69 -319 -3 -15 -13 -22 -11 -69 18 -112 69 -260 43 -335
-61 -34 -46 -55 -106 -55 -155 l0 -26 -190 0 -190 0 0 373 c0 411 -2 429 -61
500 -17 21 -54 50 -83 65 -50 26 -55 27 -251 30 -174 2 -207 0 -253 -17z m433
-135 c19 -8 44 -30 55 -48 20 -33 20 -47 20 -1137 0 -1088 0 -1104 -20 -1136
-33 -53 -64 -60 -262 -60 -198 0 -214 5 -250 76 -17 32 -18 106 -18 1116 0
742 3 1091 11 1110 13 34 47 72 74 83 37 16 352 12 390 -4z m3591 -16 c57 -53
54 1 54 -1172 0 -1011 -1 -1085 -18 -1117 -36 -71 -52 -76 -255 -76 -161 0
-186 2 -213 19 -69 41 -64 -44 -64 1178 0 1088 0 1103 20 1136 34 56 62 62
267 59 178 -2 182 -2 209 -27z m-4206 -1170 l0 -720 -57 0 c-73 0 -122 24
-145 70 -17 32 -18 85 -18 656 l0 621 23 34 c31 46 61 59 135 59 l62 0 0 -720z
m4550 707 c13 -7 35 -28 47 -46 l23 -34 0 -621 c0 -571 -1 -624 -18 -656 -23
-46 -72 -70 -144 -70 l-58 0 0 720 0 720 63 0 c34 0 73 -6 87 -13z m-3022
-213 c51 -36 52 -43 52 -472 0 -399 0 -399 -23 -433 -42 -62 -122 -68 -177
-14 l-25 25 -3 407 c-3 434 -2 446 46 483 30 24 98 26 130 4z m356 4 c14 -6
34 -23 43 -37 16 -24 18 -63 21 -426 3 -450 3 -451 -69 -489 -32 -18 -41 -18
-78 -7 -29 8 -48 22 -62 44 -18 31 -19 49 -17 450 l3 419 33 29 c35 32 81 38
126 17z m392 -22 c19 -19 34 -43 34 -54 0 -11 3 -27 6 -35 4 -12 -12 -16 -88
-20 -51 -3 -103 -8 -115 -12 -22 -7 -23 -5 -23 40 0 40 5 52 34 81 28 28 42
34 76 34 34 0 48 -6 76 -34z m352 18 c28 -19 52 -65 52 -99 l0 -25 -115 0
c-126 0 -122 -2 -104 63 18 66 111 100 167 61z m-1418 -494 l0 -230 -187 2
-188 3 -3 228 -2 227 190 0 190 0 0 -230z m1652 203 c60 -27 127 -95 159 -158
l24 -50 3 -443 c3 -376 1 -452 -12 -496 -11 -38 -62 -121 -175 -284 -88 -126
-164 -239 -170 -250 -8 -14 -11 -242 -11 -741 l0 -721 -480 0 -480 0 0 723 0
722 -157 285 c-86 157 -167 316 -180 353 -17 47 -26 102 -30 174 -6 102 -5
106 13 98 83 -34 177 -22 251 32 l32 23 43 -30 c83 -58 190 -58 283 1 l47 30
22 -20 c74 -70 225 -70 313 -1 l25 20 29 -20 c71 -52 179 -67 252 -36 47 19
104 72 130 120 20 37 22 58 25 233 3 183 3 192 -17 212 -20 20 -31 21 -317 21
-253 0 -301 2 -330 16 -40 19 -64 59 -64 104 0 42 15 67 53 91 30 19 48 19
352 17 304 -3 322 -4 367 -25z m706 -200 l-3 -228 -187 -3 -188 -2 0 90 c0
146 -29 241 -106 348 l-16 22 251 0 251 0 -2 -227z m-1321 -143 l63 0 0 -120
c0 -131 -10 -166 -52 -188 -50 -26 -99 -19 -137 19 l-31 31 0 143 0 143 47
-14 c25 -8 75 -14 110 -14z m433 -122 c0 -148 -13 -179 -81 -199 -37 -11 -46
-11 -78 7 -57 30 -71 70 -71 202 l0 112 115 0 115 0 0 -122z"/>
</g>
</svg>
