<?xml version="1.0" standalone="no"?>
<!DOCTYPE svg PUBLIC "-//W3C//DTD SVG 20010904//EN"
 "http://www.w3.org/TR/2001/REC-SVG-20010904/DTD/svg10.dtd">
<svg version="1.0" xmlns="http://www.w3.org/2000/svg"
 width="512.000000pt" height="512.000000pt" viewBox="0 0 512.000000 512.000000"
 preserveAspectRatio="xMidYMid meet">

<g transform="translate(0.000000,512.000000) scale(0.100000,-0.100000)"
fill="#8E8D8D" stroke="none">
<path d="M190 5111 c-71 -23 -131 -74 -166 -141 -18 -33 -19 -73 -22 -645 -2
-409 1 -631 8 -675 6 -38 30 -103 55 -157 51 -105 132 -194 229 -252 67 -40
199 -81 262 -81 l44 0 2 -1457 3 -1458 34 -63 c63 -116 164 -177 296 -177 71
0 88 4 147 33 77 38 130 92 167 171 l26 56 5 522 5 523 72 -108 c111 -166 233
-313 408 -487 227 -228 460 -418 739 -604 218 -147 235 -146 462 5 469 312
880 704 1137 1083 l77 115 0 -506 c0 -480 1 -509 20 -571 26 -84 96 -164 178
-204 49 -24 69 -28 142 -28 73 0 93 4 142 28 73 36 150 119 177 192 21 55 21
70 21 944 l0 887 55 23 c71 29 139 96 173 169 l27 57 3 1005 c2 692 0 1029 -8
1082 -45 319 -268 585 -575 687 -106 35 -172 46 -221 37 -47 -9 -111 -68 -124
-114 -6 -24 -10 -417 -10 -1116 l0 -1078 -41 37 c-64 58 -186 132 -269 164
-178 69 -415 80 -593 27 -163 -48 -354 -162 -477 -282 -31 -30 -59 -54 -64
-54 -4 0 -47 33 -94 74 -261 221 -481 306 -760 293 -212 -10 -383 -75 -543
-209 l-59 -49 0 176 0 175 38 0 c118 1 262 64 365 161 81 76 126 144 165 251
l27 73 3 618 c4 690 4 686 -64 765 -115 135 -322 117 -411 -36 l-28 -47 -5
-397 -5 -396 -24 -26 c-30 -32 -78 -34 -112 -7 l-24 19 -5 394 -5 393 -27 51
c-91 173 -316 191 -434 37 -18 -24 -37 -65 -43 -93 -7 -32 -11 -188 -11 -411
l0 -360 -25 -24 c-33 -34 -83 -34 -116 1 l-24 26 -5 396 c-4 353 -7 401 -23
429 -23 43 -80 98 -124 118 -41 20 -136 28 -173 16z m119 -187 l30 -25 3 -392
c3 -380 4 -393 25 -432 28 -52 88 -110 135 -130 44 -18 125 -20 179 -3 55 16
118 73 145 132 24 51 24 53 24 426 0 355 1 377 20 407 11 18 31 35 46 39 35 9
92 -19 99 -48 3 -13 6 -192 7 -398 3 -416 2 -411 72 -488 51 -56 111 -82 188
-82 76 0 129 23 180 76 73 77 73 74 76 505 3 369 4 387 23 408 42 45 109 35
136 -19 20 -39 18 -1140 -2 -1233 -28 -132 -115 -240 -241 -299 -57 -27 -81
-32 -181 -37 -110 -6 -116 -7 -139 -34 l-24 -28 0 -351 0 -350 -34 -101 c-70
-206 -67 -430 9 -702 l26 -90 -3 -691 -3 -690 -28 -43 c-31 -46 -91 -80 -141
-81 -47 0 -113 37 -138 78 l-23 37 -5 1497 -5 1497 -22 23 c-20 19 -37 23
-135 29 -62 4 -132 14 -154 22 -137 50 -243 173 -273 315 -7 36 -11 243 -11
638 l0 586 29 29 c36 36 70 37 110 3z m4192 -14 c197 -71 346 -226 417 -435
l27 -80 3 -1019 c3 -1017 3 -1018 -18 -1062 -26 -52 -68 -80 -141 -94 -30 -6
-63 -19 -74 -30 -20 -20 -20 -36 -25 -963 -6 -1053 1 -965 -77 -1024 -30 -23
-46 -28 -93 -28 -47 1 -64 6 -95 29 -20 16 -46 47 -56 70 -18 39 -19 78 -19
726 l0 685 24 75 c61 193 78 460 38 620 -11 47 -30 107 -41 133 -21 48 -21 56
-21 1243 l0 1195 38 -7 c20 -4 71 -19 113 -34z m-2395 -2030 c168 -43 311
-130 480 -292 148 -142 141 -142 283 -5 156 151 294 239 451 289 65 20 95 23
220 23 132 -1 152 -3 225 -28 284 -99 469 -333 500 -634 13 -134 -30 -383 -94
-547 -124 -310 -329 -598 -645 -903 -204 -198 -488 -422 -710 -561 l-85 -54
-62 38 c-34 20 -118 78 -188 127 -728 521 -1173 1091 -1266 1622 -21 119 -21
301 -1 388 63 269 281 483 551 542 94 21 248 18 341 -5z"/>
<path d="M2341 2032 c-14 -10 -53 -95 -101 -212 l-78 -195 -162 -5 -162 -5
-24 -28 c-32 -38 -31 -72 5 -108 l29 -29 194 0 c135 0 201 4 218 13 19 9 37
41 71 127 l47 114 21 -70 c143 -478 172 -570 190 -588 27 -26 85 -27 111 -1
10 11 78 153 150 315 72 162 132 295 134 297 1 2 42 -90 91 -203 89 -209 114
-251 150 -255 54 -7 74 10 155 131 l80 120 161 0 161 0 29 29 c40 40 36 93
-10 128 -20 15 -403 18 -430 3 -10 -5 -37 -39 -61 -75 -23 -36 -46 -65 -50
-65 -4 0 -51 104 -105 231 -59 137 -107 236 -119 245 -25 17 -76 18 -99 1 -10
-6 -75 -142 -146 -301 l-129 -289 -30 99 c-17 54 -54 176 -82 269 -88 292 -89
294 -120 310 -38 20 -63 19 -89 -3z"/>
</g>
</svg>
