<?xml version="1.0" standalone="no"?>
<!DOCTYPE svg PUBLIC "-//W3C//DTD SVG 20010904//EN"
 "http://www.w3.org/TR/2001/REC-SVG-20010904/DTD/svg10.dtd">
<svg version="1.0" xmlns="http://www.w3.org/2000/svg"
 width="512.000000pt" height="512.000000pt" viewBox="0 0 512.000000 512.000000"
 preserveAspectRatio="xMidYMid meet">

<g transform="translate(0.000000,512.000000) scale(0.100000,-0.100000)"
fill="#8E8D8D" stroke="none">
<path d="M480 4334 c-182 -39 -338 -188 -386 -368 -11 -42 -14 -290 -14 -1392
0 -1310 0 -1343 20 -1406 51 -166 190 -298 361 -343 84 -23 2718 -22 2804 0
183 47 322 187 370 372 13 49 15 241 15 1383 0 1260 -1 1329 -19 1392 -49 180
-204 324 -389 364 -99 20 -2665 19 -2762 -2z m2792 -162 c80 -32 150 -99 190
-180 l33 -67 0 -1350 0 -1350 -29 -59 c-37 -76 -101 -140 -174 -174 l-57 -27
-1370 0 -1370 0 -56 26 c-76 36 -129 86 -170 161 l-34 63 -3 1347 c-2 1343 -2
1347 19 1402 24 66 104 158 163 188 91 47 63 47 1471 45 l1330 -2 57 -23z"/>
<path d="M610 4046 c-61 -16 -112 -49 -154 -98 -66 -77 -67 -85 -64 -569 l3
-434 30 -53 c35 -64 71 -96 145 -131 l55 -26 1240 0 1240 0 56 26 c66 31 120
84 151 148 23 46 23 48 23 486 0 426 -1 441 -21 486 -31 66 -78 114 -142 146
l-57 28 -1230 2 c-951 1 -1240 -1 -1275 -11z m2495 -156 c26 -13 49 -34 63
-59 22 -38 22 -46 22 -430 0 -419 -1 -432 -51 -478 -13 -12 -44 -26 -69 -32
-28 -6 -227 -11 -516 -11 l-470 0 -215 237 c-232 256 -253 272 -347 273 -153
0 -257 -165 -187 -300 7 -14 47 -63 89 -110 42 -47 76 -89 76 -93 0 -4 -192
-7 -427 -5 -425 3 -428 3 -464 26 -69 42 -69 43 -69 494 0 386 1 404 20 436
12 19 38 41 63 52 41 19 80 20 1241 20 1179 0 1200 0 1241 -20z m-1395 -821
c85 -94 157 -175 158 -180 4 -11 -138 -12 -154 -1 -26 17 -243 264 -249 283
-11 33 20 69 58 69 29 0 47 -16 187 -171z"/>
<path d="M1818 3770 c-23 -14 -41 -74 -33 -110 12 -57 85 -80 125 -40 15 15
20 33 20 70 0 37 -5 55 -20 70 -21 21 -64 26 -92 10z"/>
<path d="M1362 3637 c-27 -29 -28 -62 -2 -105 38 -62 97 -66 136 -8 13 21 14
31 5 58 -27 76 -95 102 -139 55z"/>
<path d="M2253 3638 c-55 -61 -54 -118 3 -145 42 -21 75 -8 104 39 26 44 25
74 -5 103 -31 32 -75 33 -102 3z"/>
<path d="M1053 3328 c-30 -14 -46 -58 -34 -90 11 -29 68 -68 98 -68 63 0 97
85 51 127 -47 42 -76 50 -115 31z"/>
<path d="M2562 3305 c-37 -31 -43 -53 -26 -93 21 -50 82 -55 137 -11 33 25 38
86 9 112 -28 25 -85 21 -120 -8z"/>
<path d="M1016 2575 c-113 -65 -168 -108 -214 -167 -81 -107 -112 -199 -112
-332 1 -169 56 -278 222 -442 92 -91 116 -120 155 -198 58 -112 132 -190 223
-234 148 -71 336 -65 429 15 55 47 81 105 81 182 0 78 -20 118 -106 213 -188
208 -268 381 -325 706 -32 187 -41 211 -86 254 -37 35 -73 48 -136 48 -43 0
-65 -8 -131 -45z m174 -127 c5 -13 21 -93 36 -178 54 -318 155 -535 347 -747
80 -88 91 -114 71 -161 -18 -43 -48 -56 -139 -56 -71 -1 -88 3 -147 32 -80 39
-110 73 -168 190 -38 76 -60 103 -165 208 -160 159 -180 196 -180 344 0 95 3
110 28 160 38 74 97 133 187 186 84 50 116 55 130 22z"/>
<path d="M2476 2595 c-77 -52 -82 -65 -121 -295 -51 -300 -130 -471 -319 -685
-96 -110 -124 -171 -112 -247 14 -86 85 -173 162 -199 63 -21 228 -16 296 9
130 47 210 123 279 264 35 71 58 99 163 203 101 100 127 132 158 195 133 273
39 552 -241 718 -85 50 -103 57 -161 60 -57 3 -70 1 -104 -23z m195 -170 c91
-54 151 -115 187 -193 23 -49 27 -70 27 -152 0 -138 -20 -176 -182 -343 -108
-111 -134 -145 -166 -212 -74 -153 -168 -219 -313 -219 -91 0 -128 16 -145 62
-16 41 -4 65 80 160 202 230 286 414 347 764 14 84 31 159 36 166 18 21 49 13
129 -33z"/>
<path d="M4386 3806 c-54 -20 -85 -45 -121 -95 l-30 -43 -3 -535 c-1 -294 -6
-533 -10 -531 -124 65 -225 54 -309 -34 -36 -37 -63 -103 -63 -152 0 -18 7
-55 16 -82 15 -42 47 -79 243 -275 196 -196 233 -228 275 -243 61 -20 89 -20
152 -1 44 13 72 38 271 237 121 123 229 238 238 257 21 42 22 134 3 181 -22
52 -63 96 -111 119 -58 28 -148 28 -202 1 -22 -11 -40 -20 -42 -20 -1 0 -4
240 -5 533 l-3 534 -30 49 c-57 91 -175 135 -269 100z m107 -147 c14 -6 30
-22 36 -36 8 -17 11 -208 11 -634 l0 -610 25 -24 c41 -42 68 -33 155 50 65 62
84 75 111 75 46 0 79 -34 79 -80 0 -33 -14 -50 -208 -243 -176 -175 -213 -207
-237 -207 -25 0 -63 34 -247 218 -235 235 -242 245 -195 296 21 24 39 30 80
27 10 0 54 -35 97 -76 43 -41 86 -75 94 -75 28 0 64 22 75 47 8 17 11 207 11
629 l0 605 25 24 c26 27 51 31 88 14z"/>
</g>
</svg>
